# xmcd
#
# Track frame offsets:
#	150
#	11827
#	29510
#	38852
#	52760
#	65445
#	78930
#	91982
#	111400
#	122535
#	125035
#	137177
#	145117
#
# Disc length: 2101 seconds
#
# Revision: 1
# Processed by: cddbd v1.4PL0 Copyright (c) Steve Scherf et al.
# Submitted via: audiograbber 1.81.03
#
DISCID=b208330d
DTITLE=Elmore D. - Saturday Night Rub
DYEAR=2000
DGENRE=Blues
TTITLE0=Can't Afford To Do It
TTITLE1=Drop Down Mama
TTITLE2=If You Take Me Back
TTITLE3=Dji N'ouveure Qui L' Londi
TTITLE4=It Ain't No Lie
TTITLE5=I Want You To Know
TTITLE6=Li Rwè Dèl Rowe D'erquy
TTITLE7=Rahis' èt Rikètes
TTITLE8=Mama Sét
TTITLE9=Studio Rap
TTITLE10=Tot Seû
TTITLE11=Saturday Night Rub
TTITLE12=Drop Down
EXTD=
EXTT0=
EXTT1=
EXTT2=
EXTT3=
EXTT4=
EXTT5=
EXTT6=
EXTT7=
EXTT8=
EXTT9=
EXTT10=
EXTT11=
EXTT12=
PLAYORDER=
